<?xml version="1.0" encoding="UTF-8" standalone="no"?>
<svg
   xmlns:dc="http://purl.org/dc/elements/1.1/"
   xmlns:cc="http://creativecommons.org/ns#"
   xmlns:rdf="http://www.w3.org/1999/02/22-rdf-syntax-ns#"
   xmlns:svg="http://www.w3.org/2000/svg"
   xmlns="http://www.w3.org/2000/svg"
   width="16"
   height="16"
   viewBox="0 0 16 16"
   version="1.1"
   id="svg8">
  <defs
     id="defs2" />
  <metadata
     id="metadata5">
    <rdf:RDF>
      <cc:Work
         rdf:about="">
        <dc:format>image/svg+xml</dc:format>
        <dc:type
           rdf:resource="http://purl.org/dc/dcmitype/StillImage" />
        <dc:title></dc:title>
      </cc:Work>
    </rdf:RDF>
  </metadata>
  <g
     style="color:#bebebe;stroke-width:0.83333337"
     transform="matrix(1.2,0,0,1.2,-833.2,131.6)"
     id="g932">
    <path
       d="m 701,-108 c -2.759,0 -5,2.241 -5,5 0,2.759 2.241,5 5,5 2.759,0 5,-2.241 5,-5 0,-2.759 -2.241,-5 -5,-5 z m 0,1 c 2.207,0 4,1.793 4,4 0,2.207 -1.793,4 -4,4 -2.207,0 -4,-1.793 -4,-4 0,-2.207 1.793,-4 4,-4 z"
       overflow="visible"
       style="overflow:visible;fill:#666666;stroke-width:0.83333337;marker:none"
       id="path930" />
  </g>
</svg>
